<?xml version="1.0" encoding="UTF-8" standalone="no"?>
<!DOCTYPE svg PUBLIC "-//W3C//DTD SVG 1.1//EN" "http://www.w3.org/Graphics/SVG/1.1/DTD/svg11.dtd">
<svg width="100%" height="100%" viewBox="0 0 330 222" version="1.1" xmlns="http://www.w3.org/2000/svg" xmlns:xlink="http://www.w3.org/1999/xlink" xml:space="preserve" style="fill-rule:evenodd;clip-rule:evenodd;stroke-linejoin:round;stroke-miterlimit:1.41421;">
    <g transform="matrix(1,0,0,1,-475.562,-4139.41)">
        <g transform="matrix(0.581638,0,0,0.581638,255.981,4018.39)">
            <g transform="matrix(0.250587,-0.43403,0.389736,0.225014,137.453,579.604)">
                <rect x="246.803" y="508.167" width="549.66" height="12.245" style="fill:black;fill-opacity:0.327059;"/>
            </g>
            <g>
                <g transform="matrix(0.250587,-0.43403,0.389736,0.225014,137.453,579.604)">
                    <rect x="246.803" y="508.167" width="549.66" height="12.245" style="fill:black;fill-opacity:0.6;"/>
                </g>
                <g transform="matrix(0.250587,-0.43403,0.389736,0.225014,346.446,574.093)">
                    <rect x="246.803" y="508.167" width="549.66" height="12.245" style="fill:black;fill-opacity:0.327059;"/>
                </g>
                <g transform="matrix(-0.250587,-0.43403,-0.389736,0.225014,937.494,576.849)">
                    <rect x="246.803" y="508.167" width="549.66" height="12.245" style="fill:black;fill-opacity:0.327059;"/>
                </g>
                <g transform="matrix(-0.250587,-0.43403,-0.389736,0.225014,1146.49,571.338)">
                    <rect x="246.803" y="508.167" width="549.66" height="12.245" style="fill:black;fill-opacity:0.327059;"/>
                </g>
            </g>
            <g transform="matrix(0.250587,-0.43403,0.389736,0.225014,346.446,574.093)">
                <rect x="246.803" y="508.167" width="549.66" height="12.245" style="fill:black;fill-opacity:0.545098;"/>
            </g>
            <g transform="matrix(-0.250587,-0.43403,-0.389736,0.225014,937.494,576.849)">
                <rect x="246.803" y="508.167" width="549.66" height="12.245" style="fill:black;fill-opacity:0.545098;"/>
            </g>
            <g transform="matrix(-0.250587,-0.43403,-0.389736,0.225014,1146.49,571.338)">
                <rect x="246.803" y="508.167" width="549.66" height="12.245" style="fill:black;fill-opacity:0.545098;"/>
            </g>
            <g transform="matrix(1,0,0,0.529408,-50.8161,163.946)">
                <rect x="535.542" y="226.478" width="310.547" height="3.963" style="fill:black;stroke-width:2.15px;stroke:rgb(10,6,6);"/>
            </g>
            <g transform="matrix(2.40908,0,0,2.05654,-447.074,-34.6599)">
                <text x="341.362px" y="127.406px" style="font-family:'HiraginoSansGB-W3', 'Hiragino Sans GB', sans-serif;font-weight:300;font-size:12px;fill:black;stroke-width:0.77px;stroke:black;">M<tspan x="353.302px 362.902px 372.214px 380.53px 388.354px 391.942px 396.538px 404.854px 412.678px 416.266px 424.894px 434.494px 443.638px 451.954px 460.342px 470.278px 474.874px 483.418px 493.354px 503.494px 511.882px 522.022px 531.67px 540.982px 550.582px 559.126px 569.062px " y="127.406px 127.406px 127.406px 127.406px 127.406px 127.406px 127.406px 127.406px 127.406px 127.406px 127.406px 127.406px 127.406px 127.406px 127.406px 127.406px 127.406px 127.406px 127.406px 127.406px 127.406px 127.406px 127.406px 127.406px 127.406px 127.406px 127.406px ">ARELI ELIZABETH PHOTOGRAPHY</tspan></text>
            </g>
        </g>
    </g>
</svg>
